Sprint_05400001_forces_filt999Hz.mot
version=1
nRows=43
nColumns=19
inDegrees=yes
endheader
time	R_ground_force_vx	R_ground_force_vy	R_ground_force_vz	R_ground_force_px	R_ground_force_py	R_ground_force_pz	R_ground_torque_x	R_ground_torque_y	R_ground_torque_z	L_ground_force_vx	L_ground_force_vy	L_ground_force_vz	L_ground_force_px	L_ground_force_py	L_ground_force_pz	L_ground_torque_x	L_ground_torque_y	L_ground_torque_z	
0.904500	-85.205633	2774.397446	 19.971058	  0.790622	  0.000000	 -0.345148	  0.000000	 -3.478930	  0.000000	  0.000000	  0.000000	  0.000000	  0.786104	  0.000000	 -0.339675	  0.000000	  0.000000	  0.000000
0.905000	-74.477609	2812.608782	-17.300759	  0.797055	  0.000000	 -0.344997	  0.000000	 -5.678942	  0.000000	  0.000000	  0.000000	  0.000000	  0.783399	  0.000000	 -0.339664	  0.000000	  0.000000	  0.000000
0.905500	-74.524454	2812.238018	-16.802646	  0.796912	  0.000000	 -0.344952	  0.000000	 -5.397975	  0.000000	  0.000000	  0.000000	  0.000000	  0.780695	  0.000000	 -0.339669	  0.000000	  0.000000	  0.000000
0.906000	-63.109834	2839.770649	-55.066240	  0.801468	  0.000000	 -0.347500	  0.000000	 -0.032713	  0.000000	  0.000000	  0.000000	  0.000000	  0.777990	  0.000000	 -0.339674	  0.000000	  0.000000	  0.000000
0.906500	-63.232930	2839.397445	-54.491875	  0.801455	  0.000000	 -0.347500	  0.000000	  0.096899	  0.000000	  0.000000	  0.000000	  0.000000	  0.775285	  0.000000	 -0.339679	  0.000000	  0.000000	  0.000000
0.907000	-47.011829	2851.978894	-79.938046	  0.802746	  0.000000	 -0.349801	  0.000000	  4.337971	  0.000000	  0.000000	  0.000000	  0.000000	  0.772581	  0.000000	 -0.339685	  0.000000	  0.000000	  0.000000
0.907500	-47.287481	2852.061029	-79.516309	  0.802690	  0.000000	 -0.349723	  0.000000	  4.238535	  0.000000	  0.000000	  0.000000	  0.000000	  0.769876	  0.000000	 -0.339690	  0.000000	  0.000000	  0.000000
0.908000	-35.338866	2848.928342	-86.117836	  0.797435	  0.000000	 -0.350711	  0.000000	  1.077864	  0.000000	  0.000000	  0.000000	  0.000000	  0.767171	  0.000000	 -0.339695	  0.000000	  0.000000	  0.000000
0.908500	-35.538207	2848.855482	-86.077608	  0.797594	  0.000000	 -0.350716	  0.000000	  0.920749	  0.000000	  0.000000	  0.000000	  0.000000	  0.764467	  0.000000	 -0.339700	  0.000000	  0.000000	  0.000000
0.909000	-34.575930	2828.482762	-65.060689	  0.785463	  0.000000	 -0.349923	  0.000000	 -6.447294	  0.000000	  0.000000	  0.000000	  0.000000	  0.761762	  0.000000	 -0.339706	  0.000000	  0.000000	  0.000000
0.909500	-34.546385	2828.712688	-65.401967	  0.785666	  0.000000	 -0.349890	  0.000000	 -6.639495	  0.000000	  0.000000	  0.000000	  0.000000	  0.759057	  0.000000	 -0.339711	  0.000000	  0.000000	  0.000000
0.910000	-39.153564	2795.982729	-28.973635	  0.770144	  0.000000	 -0.347813	  0.000000	-10.915950	  0.000000	  0.000000	  0.000000	  0.000000	  0.756353	  0.000000	 -0.339716	  0.000000	  0.000000	  0.000000
0.910500	-39.047733	2796.362872	-29.467536	  0.770353	  0.000000	 -0.347892	  0.000000	-10.946817	  0.000000	  0.000000	  0.000000	  0.000000	  0.753635	  0.000000	 -0.339734	  0.000000	  0.000000	  0.000000
0.911000	-38.772085	2758.142109	 -3.949204	  0.757387	  0.000000	 -0.346832	  0.000000	 -6.131919	  0.000000	  0.000000	  0.000000	  0.000000	  0.750918	  0.000000	 -0.339751	  0.000000	  0.000000	  0.000000
0.911500	-38.742570	2758.825080	 -4.214257	  0.757560	  0.000000	 -0.346873	  0.000000	 -6.002783	  0.000000	  0.000000	  0.000000	  0.000000	  0.748201	  0.000000	 -0.339769	  0.000000	  0.000000	  0.000000
0.912000	-29.769384	2731.440395	  5.816438	  0.749417	  0.000000	 -0.346022	  0.000000	 10.712260	  0.000000	  0.000000	  0.000000	  0.000000	  0.745483	  0.000000	 -0.339786	  0.000000	  0.000000	  0.000000
0.912500	-29.816198	2731.815863	  5.627646	  0.749544	  0.000000	 -0.345968	  0.000000	 10.573756	  0.000000	  0.000000	  0.000000	  0.000000	  0.742766	  0.000000	 -0.339804	  0.000000	  0.000000	  0.000000
0.913000	-18.020094	2730.526021	  6.884569	  0.746092	  0.000000	 -0.344014	  0.000000	 34.817565	  0.000000	  0.000000	  0.000000	  0.000000	  0.740049	  0.000000	 -0.339821	  0.000000	  0.000000	  0.000000
0.913500	-18.219544	2731.051775	  6.848334	  0.745954	  0.000000	 -0.343964	  0.000000	 34.616757	  0.000000	  0.000000	  0.000000	  0.000000	  0.737332	  0.000000	 -0.339839	  0.000000	  0.000000	  0.000000
0.914000	 -6.575973	2737.698794	  2.383241	  0.747393	  0.000000	 -0.343604	  0.000000	 55.421393	  0.000000	  0.000000	  0.000000	  0.000000	  0.734614	  0.000000	 -0.339856	  0.000000	  0.000000	  0.000000
0.914500	 -6.699191	2737.764508	  2.575858	  0.747245	  0.000000	 -0.343588	  0.000000	 55.356650	  0.000000	  0.000000	  0.000000	  0.000000	  0.731897	  0.000000	 -0.339874	  0.000000	  0.000000	  0.000000
0.915000	 13.184195	2727.781709	  4.138016	  0.749842	  0.000000	 -0.345569	  0.000000	 67.220680	  0.000000	  0.000000	  0.000000	  0.000000	  0.729180	  0.000000	 -0.339892	  0.000000	  0.000000	  0.000000
0.915500	 12.908314	2727.997761	  4.101724	  0.749741	  0.000000	 -0.345557	  0.000000	 66.870517	  0.000000	  0.000000	  0.000000	  0.000000	  0.726443	  0.000000	 -0.339918	  0.000000	  0.000000	  0.000000
0.916000	 48.432040	2709.777452	 20.236052	  0.750409	  0.000000	 -0.346852	  0.000000	 69.573132	  0.000000	  0.000000	  0.000000	  0.000000	  0.723707	  0.000000	 -0.339944	  0.000000	  0.000000	  0.000000
0.916500	 47.774601	2709.991283	 19.970851	  0.750399	  0.000000	 -0.346884	  0.000000	 69.347711	  0.000000	  0.000000	  0.000000	  0.000000	  0.720970	  0.000000	 -0.339970	  0.000000	  0.000000	  0.000000
0.917000	 92.072226	2697.418932	 43.429424	  0.749594	  0.000000	 -0.346812	  0.000000	 63.745119	  0.000000	  0.000000	  0.000000	  0.000000	  0.718234	  0.000000	 -0.339996	  0.000000	  0.000000	  0.000000
0.917500	 91.567273	2697.630572	 42.935317	  0.749583	  0.000000	 -0.346754	  0.000000	 63.455251	  0.000000	  0.000000	  0.000000	  0.000000	  0.715497	  0.000000	 -0.340022	  0.000000	  0.000000	  0.000000
0.918000	134.186540	2680.635348	 59.222282	  0.746227	  0.000000	 -0.348391	  0.000000	 55.838833	  0.000000	  0.000000	  0.000000	  0.000000	  0.712761	  0.000000	 -0.340048	  0.000000	  0.000000	  0.000000
0.918500	133.605178	2680.844828	 59.033328	  0.746262	  0.000000	 -0.348356	  0.000000	 55.754066	  0.000000	  0.000000	  0.000000	  0.000000	  0.710025	  0.000000	 -0.340074	  0.000000	  0.000000	  0.000000
0.919000	166.153765	2652.560244	 69.521976	  0.738019	  0.000000	 -0.350882	  0.000000	 49.785808	  0.000000	  0.000000	  0.000000	  0.000000	  0.707288	  0.000000	 -0.340100	  0.000000	  0.000000	  0.000000
0.919500	165.572275	2653.072773	 69.256705	  0.738108	  0.000000	 -0.350875	  0.000000	 49.591426	  0.000000	  0.000000	  0.000000	  0.000000	  0.704552	  0.000000	 -0.340126	  0.000000	  0.000000	  0.000000
0.920000	184.235499	2618.839372	 89.205824	  0.726361	  0.000000	 -0.350320	  0.000000	 42.841376	  0.000000	  0.000000	  0.000000	  0.000000	  0.701815	  0.000000	 -0.340152	  0.000000	  0.000000	  0.000000
0.920500	184.264220	2619.197219	 88.864240	  0.726494	  0.000000	 -0.350333	  0.000000	 42.818197	  0.000000	  0.000000	  0.000000	  0.000000	  0.699144	  0.000000	 -0.340106	  0.000000	  0.000000	  0.000000
0.921000	192.627909	2585.271069	120.562645	  0.715725	  0.000000	 -0.346370	  0.000000	 29.099995	  0.000000	  0.000000	  0.000000	  0.000000	  0.696472	  0.000000	 -0.340060	  0.000000	  0.000000	  0.000000
0.921500	192.503887	2585.779446	119.992160	  0.715819	  0.000000	 -0.346386	  0.000000	 28.924950	  0.000000	  0.000000	  0.000000	  0.000000	  0.693801	  0.000000	 -0.340014	  0.000000	  0.000000	  0.000000
0.922000	196.976745	2557.043325	154.666047	  0.708875	  0.000000	 -0.341338	  0.000000	  6.943855	  0.000000	  0.000000	  0.000000	  0.000000	  0.691129	  0.000000	 -0.339968	  0.000000	  0.000000	  0.000000
0.922500	196.928851	2557.702268	154.019252	  0.708929	  0.000000	 -0.341383	  0.000000	  6.870041	  0.000000	  0.000000	  0.000000	  0.000000	  0.688458	  0.000000	 -0.339922	  0.000000	  0.000000	  0.000000
0.923000	195.298367	2542.395884	184.496987	  0.705469	  0.000000	 -0.336199	  0.000000	-16.351041	  0.000000	  0.000000	  0.000000	  0.000000	  0.685786	  0.000000	 -0.339876	  0.000000	  0.000000	  0.000000
0.923500	195.326587	2542.595081	184.002765	  0.705507	  0.000000	 -0.336209	  0.000000	-16.297162	  0.000000	  0.000000	  0.000000	  0.000000	  0.683115	  0.000000	 -0.339830	  0.000000	  0.000000	  0.000000
0.924000	189.729003	2531.105357	196.932907	  0.701816	  0.000000	 -0.333985	  0.000000	-32.989616	  0.000000	  0.000000	  0.000000	  0.000000	  0.680443	  0.000000	 -0.339784	  0.000000	  0.000000	  0.000000
0.924500	189.604444	2530.997434	196.743848	  0.701939	  0.000000	 -0.334036	  0.000000	-32.807017	  0.000000	  0.000000	  0.000000	  0.000000	  0.677772	  0.000000	 -0.339739	  0.000000	  0.000000	  0.000000
0.925000	192.551979	2514.321645	184.420706	  0.694704	  0.000000	 -0.336579	  0.000000	-45.485577	  0.000000	  0.000000	  0.000000	  0.000000	  0.675100	  0.000000	 -0.339693	  0.000000	  0.000000	  0.000000
0.925500	192.503510	2514.669583	184.689399	  0.694749	  0.000000	 -0.336496	  0.000000	-45.304840	  0.000000	  0.000000	  0.000000	  0.000000	  0.672408	  0.000000	 -0.339659	  0.000000	  0.000000	  0.000000
